<?xml version="1.0" encoding="utf-8"?>
<!-- Generator: Adobe Illustrator 16.0.0, SVG Export Plug-In . SVG Version: 6.00 Build 0)  -->
<!DOCTYPE svg PUBLIC "-//W3C//DTD SVG 1.1//EN" "http://www.w3.org/Graphics/SVG/1.1/DTD/svg11.dtd">
<svg version="1.1" id="Layer_1" xmlns="http://www.w3.org/2000/svg" xmlns:xlink="http://www.w3.org/1999/xlink" x="0px" y="0px"
	 width="434px" height="435.334px" viewBox="0 0 434 435.334" enable-background="new 0 0 434 435.334" xml:space="preserve">
<line fill="none" stroke="#AAAAAA" stroke-miterlimit="10" x1="126.335" y1="11.667" x2="367.001" y2="333.667"/>
<line fill="none" stroke="#AAAAAA" stroke-miterlimit="10" x1="169.668" y1="15.667" x2="333.001" y2="355.667"/>
<line fill="none" stroke="#AAAAAA" stroke-miterlimit="10" x1="209.668" y1="33" x2="296.335" y2="368.334"/>
<line fill="none" stroke="#AAAAAA" stroke-miterlimit="10" x1="243.668" y1="53" x2="261.668" y2="374.334"/>
<line fill="none" stroke="#AAAAAA" stroke-miterlimit="10" x1="269.001" y1="77" x2="227.001" y2="371.667"/>
<line fill="none" stroke="#AAAAAA" stroke-miterlimit="10" x1="288.335" y1="107" x2="198.335" y2="359"/>
<line fill="none" stroke="#AAAAAA" stroke-miterlimit="10" x1="298.335" y1="137" x2="175.668" y2="344.334"/>
<line fill="none" stroke="#AAAAAA" stroke-miterlimit="10" x1="301.001" y1="168.333" x2="157.668" y2="327"/>
<line fill="none" stroke="#AAAAAA" stroke-miterlimit="10" x1="297.001" y1="194.333" x2="148.335" y2="303.667"/>
<line fill="none" stroke="#AAAAAA" stroke-miterlimit="10" x1="287.668" y1="217.667" x2="142.335" y2="284.334"/>
<line fill="none" stroke="#AAAAAA" stroke-miterlimit="10" x1="273.668" y1="235.667" x2="141.668" y2="265.667"/>
<line fill="none" stroke="#AAAAAA" stroke-miterlimit="10" x1="426.335" y1="264.334" x2="13.001" y2="343.667"/>
<line fill="none" stroke="#AAAAAA" stroke-miterlimit="10" x1="401.001" y1="305.667" x2="8.335" y2="302.334"/>
<line fill="none" stroke="#AAAAAA" stroke-miterlimit="10" x1="368.335" y1="335" x2="13.001" y2="262.334"/>
<line fill="none" stroke="#AAAAAA" stroke-miterlimit="10" x1="333.001" y1="359" x2="23.668" y2="226.334"/>
<line fill="none" stroke="#AAAAAA" stroke-miterlimit="10" x1="295.668" y1="371.667" x2="44.335" y2="197.667"/>
<line fill="none" stroke="#AAAAAA" stroke-miterlimit="10" x1="261.668" y1="377" x2="67.001" y2="177"/>
<line fill="none" stroke="#AAAAAA" stroke-miterlimit="10" x1="227.001" y1="373.667" x2="91.668" y2="163.667"/>
<line fill="none" stroke="#AAAAAA" stroke-miterlimit="10" x1="197.668" y1="363" x2="116.335" y2="153.667"/>
<line fill="none" stroke="#AAAAAA" stroke-miterlimit="10" x1="173.668" y1="347" x2="139.668" y2="151.667"/>
<line fill="none" stroke="#AAAAAA" stroke-miterlimit="10" x1="156.335" y1="326.334" x2="161.001" y2="159.667"/>
<line fill="none" stroke="#AAAAAA" stroke-miterlimit="10" x1="145.668" y1="307.667" x2="179.001" y2="164.333"/>
<line fill="none" stroke="#AAAAAA" stroke-miterlimit="10" x1="141.668" y1="285.667" x2="192.335" y2="179.667"/>
<line fill="none" stroke="#AAAAAA" stroke-miterlimit="10" x1="52.335" y1="427" x2="166.335" y2="14.333"/>
<line fill="none" stroke="#AAAAAA" stroke-miterlimit="10" x1="27.668" y1="385.667" x2="206.335" y2="29.667"/>
<line fill="none" stroke="#AAAAAA" stroke-miterlimit="10" x1="11.001" y1="343.667" x2="243.001" y2="49"/>
<line fill="none" stroke="#AAAAAA" stroke-miterlimit="10" x1="9.001" y1="301" x2="269.001" y2="75.667"/>
<line fill="none" stroke="#AAAAAA" stroke-miterlimit="10" x1="9.668" y1="261" x2="291.668" y2="103"/>
<line fill="none" stroke="#AAAAAA" stroke-miterlimit="10" x1="22.335" y1="226.334" x2="299.668" y2="135"/>
<line fill="none" stroke="#AAAAAA" stroke-miterlimit="10" x1="39.001" y1="196.333" x2="305.001" y2="165"/>
<line fill="none" stroke="#AAAAAA" stroke-miterlimit="10" x1="63.668" y1="174.333" x2="296.335" y2="192.333"/>
<line fill="none" stroke="#AAAAAA" stroke-miterlimit="10" x1="89.668" y1="159.667" x2="290.335" y2="217"/>
<line fill="none" stroke="#AAAAAA" stroke-miterlimit="10" x1="115.001" y1="151" x2="277.668" y2="236.334"/>
<line fill="none" stroke="#AAAAAA" stroke-miterlimit="10" x1="136.335" y1="151" x2="259.001" y2="247.667"/>
<line fill="none" stroke="#AAAAAA" stroke-miterlimit="10" x1="161.001" y1="157" x2="239.668" y2="253"/>
<path fill="none" stroke="#AAAAAA" stroke-miterlimit="10" d="M122.333,7.667c0,0,110.669-3.333,164.002,93.333
	c0,0,53.332,96.667-33.334,146.667c0,0-8,5.333-12,1.333s-0.668-2.333-0.668-2.333"/>
<path fill="none" stroke="#AAAAAA" stroke-miterlimit="10" d="M189.001,175.667c0,0-83.333-80-163.333,46c0,0-52.667,97.333,24,202"
	/>
<path fill="none" stroke="#AAAAAA" stroke-miterlimit="10" d="M143.001,268.334c0,0-9.333,106,122.667,106.667
	c0,0,105.999,0,157.333-108"/>
<circle fill="#4F4F4F" cx="262.001" cy="377.333" r="7.667"/>
<circle fill="#4F4F4F" cx="304" cy="166" r="7.667"/>
<circle fill="#4F4F4F" cx="301.667" cy="135" r="7.667"/>
<circle fill="#4F4F4F" cx="289.667" cy="104.333" r="7.667"/>
<circle fill="#4F4F4F" cx="270.333" cy="73.667" r="7.667"/>
<circle fill="#4F4F4F" cx="243.667" cy="47.667" r="7.667"/>
<circle fill="#4F4F4F" cx="208.667" cy="26.667" r="7.667"/>
<circle fill="#4F4F4F" cx="168.001" cy="11.333" r="7.667"/>
<circle fill="#4F4F4F" cx="122.333" cy="7.667" r="7.667"/>
<circle fill="#4F4F4F" cx="426.333" cy="265.667" r="7.667"/>
<circle fill="#4F4F4F" cx="228.333" cy="373" r="7.667"/>
<circle fill="#4F4F4F" cx="199.334" cy="363" r="7.667"/>
<circle fill="#4F4F4F" cx="174.333" cy="346.334" r="7.667"/>
<circle fill="#4F4F4F" cx="157" cy="327" r="7.667"/>
<circle fill="#4F4F4F" cx="146.333" cy="305.667" r="7.667"/>
<circle fill="#4F4F4F" cx="142.667" cy="284.999" r="7.667"/>
<circle fill="#4F4F4F" cx="144.333" cy="264.999" r="7.667"/>
<circle fill="#4F4F4F" cx="240.333" cy="254.334" r="7.667"/>
<circle fill="#4F4F4F" cx="258.667" cy="247" r="7.667"/>
<circle fill="#4F4F4F" cx="275.334" cy="235" r="7.667"/>
<circle fill="#4F4F4F" cx="401.334" cy="304.999" r="7.667"/>
<circle fill="#4F4F4F" cx="369.335" cy="337.001" r="7.667"/>
<circle fill="#4F4F4F" cx="334.001" cy="359" r="7.667"/>
<circle fill="#4F4F4F" cx="298.001" cy="372.333" r="7.667"/>
<circle fill="#4F4F4F" cx="299" cy="193" r="7.667"/>
<circle fill="#4F4F4F" cx="11.667" cy="262.334" r="7.667"/>
<circle fill="#4F4F4F" cx="23.667" cy="226.334" r="7.667"/>
<circle fill="#4F4F4F" cx="41.001" cy="196.334" r="7.667"/>
<circle fill="#4F4F4F" cx="63.667" cy="173.667" r="7.667"/>
<circle fill="#4F4F4F" cx="89" cy="159" r="7.667"/>
<circle fill="#4F4F4F" cx="115" cy="151" r="7.667"/>
<circle fill="#4F4F4F" cx="139" cy="150.333" r="7.667"/>
<circle fill="#4F4F4F" cx="161.667" cy="155.667" r="7.667"/>
<circle fill="#4F4F4F" cx="179" cy="165" r="7.667"/>
<circle fill="#4F4F4F" cx="289.667" cy="217" r="7.667"/>
<circle fill="#4F4F4F" cx="52.333" cy="427.667" r="7.667"/>
<circle fill="#4F4F4F" cx="27.001" cy="385.667" r="7.667"/>
<circle fill="#4F4F4F" cx="12.333" cy="343.667" r="7.667"/>
<circle fill="#4F4F4F" cx="192.333" cy="180.333" r="7.667"/>
<circle fill="#4F4F4F" cx="7.667" cy="301.667" r="7.667"/>
</svg>
