<?xml version="1.0" encoding="UTF-8"?>
<svg version="1.1" xmlns="http://www.w3.org/2000/svg" width="560" height="162" viewBox="0 0 560 162" preserveAspectRatio="none" shape-rendering="geometricPrecision"><path fill="#333333" fill-rule="evenodd" clip-rule="evenodd" d="M421,19c-11,8-15,1-16-8C371-6,294,26,254,42c20,8,64,25,76,30C560-43,609,113,511,127c-10,24-67,68-246-13C253,123,89,190,65,103c-47,4-115-58-7-91c62-20,141,5,189,26C285,23,402-28,421,19z M7,64C15,89,45,98,64,97c1-37,72-54,129-34c10-3,12-4,28-11C63-23-2,39,7,64z M552,81c-9-57-108-61-214-5c53,23,138,43,165,39c5-39-62-64-81-40c-3,4,8,9,1,15c-14,5-14-8-11-15c7-20,92-25,100,41C532,114,553,106,552,81z M229,54c-9,4-19,8-27,12c24,8,64,25,79,31c10-4,14-6,26-12C293,79,251,63,229,54z M70,97c38,1,97-19,101-22C143,63,74,60,70,97zM178,78c-44,19-85,24-107,25c15,61,135,33,187,7C232,100,210,89,178,78z M315,89c-10,3-14,6-27,12C438,172,491,147,502,128C434,131,333,96,315,89z"/></svg>