<?xml version="1.0" encoding="utf-8"?>
<!-- Generator: Adobe Illustrator 16.0.0, SVG Export Plug-In . SVG Version: 6.00 Build 0)  -->
<!DOCTYPE svg PUBLIC "-//W3C//DTD SVG 1.1//EN" "http://www.w3.org/Graphics/SVG/1.1/DTD/svg11.dtd">
<svg version="1.1" id="Layer_1" xmlns="http://www.w3.org/2000/svg" xmlns:xlink="http://www.w3.org/1999/xlink" x="0px" y="0px"
	 width="305.525px" height="305.365px" viewBox="0 0 305.525 305.365" enable-background="new 0 0 305.525 305.365"
	 xml:space="preserve">
<g>
	<path fill="#F79420" d="M47.477,200.636c-18.618,31.742-28.208,53.324-28.208,53.324l16.149,16.148l16.148,16.148
		c0,0,21.581-9.59,53.323-28.209L47.477,200.636z"/>
	<g>
		<path fill="#E71958" d="M166.175,215.478c0,0,22.318-4.242,40.031,12.398c17.713,16.637-21.729,63.309-137.15,77.488
			c0,0,72.599-29.207,77.572-48.645c4.975-19.439-29.651-10.762-29.651-10.762L166.175,215.478z"/>
		<path fill="#E71958" d="M90.047,139.349c0,0,4.241-22.319-12.398-40.032c-16.637-17.711-63.31,21.729-77.49,137.149
			c0,0,29.209-72.596,48.645-77.57c19.441-4.975,10.762,29.65,10.762,29.65L90.047,139.349z"/>
	</g>
	<path fill="#BDBEC1" d="M304.919,0.605c0,0-28.805-4.221-68.824,9.625l59.199,59.198C309.14,29.409,304.919,0.605,304.919,0.605z"
		/>
	<path fill="#6ECFF5" d="M171.441,46.104c-9.779,7.696-19.674,16.619-29.527,27.07C99.836,117.8,68.112,165.457,47.477,200.636
		l57.412,57.412c35.177-20.637,82.837-52.359,127.46-94.436c10.451-9.855,19.375-19.748,27.072-29.527L171.441,46.104z"/>
	<path fill="#E71958" d="M276.75,109.023c8.334-13.926,14.283-27.284,18.545-39.595L236.095,10.23
		c-12.311,4.261-25.67,10.209-39.596,18.544c-8.193,4.905-16.586,10.663-25.059,17.33l87.98,87.981
		C266.085,125.609,271.845,117.22,276.75,109.023z"/>
	<g>
		<circle fill="#ABD16A" cx="226.128" cy="47.905" r="7.994"/>
		<circle fill="#ABD16A" cx="241.875" cy="63.651" r="7.994"/>
		<circle fill="#ABD16A" cx="257.619" cy="79.396" r="7.994"/>
	</g>
	<g>
		<g>
			<path fill="#FFFFFD" d="M180.102,109.866L180.102,109.866c4.154,0,8.062,1.619,11,4.557c6.063,6.065,6.063,15.933,0.001,21.997
				c-2.938,2.938-6.845,4.556-10.999,4.556s-8.061-1.618-10.999-4.556c-6.064-6.065-6.065-15.934-0.002-21.998
				C172.041,111.484,175.947,109.866,180.102,109.866 M180.101,104.866c-5.26,0-10.52,2.006-14.533,6.02
				c-8.025,8.026-8.023,21.043,0.002,29.069c4.014,4.014,9.273,6.021,14.534,6.021s10.521-2.007,14.534-6.021
				c8.027-8.028,8.025-21.04,0-29.067C190.624,106.874,185.363,104.866,180.101,104.866L180.101,104.866z"/>
		</g>
		<g>
			<path fill="#FFFFFD" d="M141.343,148.625L141.343,148.625c4.155,0,8.062,1.618,11,4.556c2.938,2.938,4.556,6.845,4.556,10.999
				s-1.617,8.06-4.554,10.997c-2.939,2.938-6.846,4.557-11.002,4.557c-4.154,0-8.06-1.617-10.997-4.556
				c-2.938-2.937-4.555-6.843-4.555-10.998c0-4.156,1.618-8.063,4.556-11.001C133.283,150.243,137.188,148.625,141.343,148.625
				 M141.342,143.625c-5.259,0-10.519,2.006-14.531,6.019c-8.027,8.027-8.027,21.045,0,29.07c4.013,4.014,9.271,6.02,14.532,6.02
				s10.523-2.008,14.537-6.021c8.025-8.025,8.025-21.039-0.002-29.066C151.865,145.632,146.604,143.625,141.342,143.625
				L141.342,143.625z"/>
		</g>
	</g>
</g>
</svg>
